<svg xmlns="http://www.w3.org/2000/svg" width="480" height="216" viewBox="0 0 480 216" shape-rendering="geometricPrecision"><rect x="72" y="168" width="336" height="3.36" fill="#6E6A63"/><rect x="108" y="36" width="84" height="84" fill="#3A3834"/><rect x="116.4" y="44.4" width="30" height="30" fill="#141312"/><rect x="116.4" y="81.6" width="30" height="30" fill="#141312"/><rect x="153.6" y="44.4" width="30" height="30" fill="#141312"/><rect x="153.6" y="81.6" width="30" height="30" fill="#141312"/><circle cx="168" cy="56.4" r="9.6" fill="#F2EFE8"/><circle cx="172.8" cy="52.8" r="8.4" fill="#141312"/><rect x="222" y="42" width="42" height="60" fill="#3A3834"/><circle cx="243" cy="66" r="13.2" fill="#F2EFE8"/><path d="M222 102L222 80.4A21.6 21.6 0 0 1 243.6 102Z" fill="#F2EFE8"/><path d="M288 124.8L288 84A40.8 40.8 0 0 1 328.8 124.8Z" fill="#3A3834"/><rect x="287.28" y="124.8" width="52.8" height="14.4" fill="#3A3834"/><rect x="288" y="138.48" width="8.4" height="22.32" fill="#3A3834"/><rect x="332.4" y="138.48" width="8.4" height="22.32" fill="#3A3834"/><path d="M372 55.2L345.6 55.2A26.4 26.4 0 0 1 398.4 55.2Z" fill="#3A3834"/><rect x="369.6" y="54.48" width="4.8" height="112.8" fill="#3A3834"/><rect x="357.6" y="163.2" width="28.8" height="4.8" fill="#3A3834"/><path d="M372 55.2L382.8 55.2A10.8 10.8 0 0 1 361.2 55.2Z" fill="#F2EFE8"/><rect x="244.8" y="160.8" width="105.6" height="7.2" fill="#FF4F2E"/></svg>
