<svg xmlns="http://www.w3.org/2000/svg" width="32" height="32" viewBox="0 0 32 32" shape-rendering="crispEdges"><g><rect x="0" y="0" width="8" height="4" fill="#173a44"/><rect x="8" y="0" width="4" height="4" fill="#102a33"/><rect x="12" y="0" width="4" height="4" fill="#173a44"/><rect x="16" y="0" width="4" height="4" fill="#102a33"/><rect x="20" y="0" width="4" height="4" fill="#173a44"/><rect x="24" y="0" width="4" height="4" fill="#102a33"/><rect x="28" y="0" width="4" height="4" fill="#173a44"/><rect x="0" y="4" width="8" height="4" fill="#173a44"/><rect x="8" y="4" width="8" height="4" fill="#1f4d57"/><rect x="16" y="4" width="4" height="4" fill="#102a33"/><rect x="20" y="4" width="8" height="4" fill="#1f4d57"/><rect x="28" y="4" width="4" height="4" fill="#173a44"/><rect x="0" y="8" width="8" height="4" fill="#102a33"/><rect x="8" y="8" width="8" height="4" fill="#173a44"/><rect x="16" y="8" width="4" height="4" fill="#102a33"/><rect x="20" y="8" width="8" height="4" fill="#173a44"/><rect x="28" y="8" width="4" height="4" fill="#102a33"/><rect x="0" y="12" width="8" height="4" fill="#173a44"/><rect x="8" y="12" width="4" height="4" fill="#102a33"/><rect x="12" y="12" width="12" height="4" fill="#173a44"/><rect x="24" y="12" width="4" height="4" fill="#102a33"/><rect x="28" y="12" width="4" height="4" fill="#173a44"/><rect x="0" y="16" width="4" height="4" fill="#102a33"/><rect x="4" y="16" width="4" height="4" fill="#173a44"/><rect x="8" y="16" width="4" height="4" fill="#102a33"/><rect x="12" y="16" width="12" height="4" fill="#173a44"/><rect x="24" y="16" width="4" height="4" fill="#102a33"/><rect x="28" y="16" width="4" height="4" fill="#173a44"/><rect x="0" y="20" width="4" height="4" fill="#102a33"/><rect x="4" y="20" width="8" height="4" fill="#1f4d57"/><rect x="12" y="20" width="12" height="4" fill="#173a44"/><rect x="24" y="20" width="8" height="4" fill="#1f4d57"/><rect x="0" y="24" width="4" height="4" fill="#102a33"/><rect x="4" y="24" width="8" height="4" fill="#173a44"/><rect x="12" y="24" width="12" height="4" fill="#102a33"/><rect x="24" y="24" width="8" height="4" fill="#173a44"/><rect x="0" y="28" width="8" height="4" fill="#173a44"/><rect x="8" y="28" width="4" height="4" fill="#102a33"/><rect x="12" y="28" width="12" height="4" fill="#173a44"/><rect x="24" y="28" width="4" height="4" fill="#102a33"/><rect x="28" y="28" width="4" height="4" fill="#173a44"/></g></svg>